<svg width="999" height="230" viewBox="0 0 999 230" fill="none" xmlns="http://www.w3.org/2000/svg">
<path d="M208.99 139.157H710.003" stroke="#00FFCC" stroke-width="6"/>
<mask id="path-2-outside-1_20_386" maskUnits="userSpaceOnUse" x="211" y="27" width="364" height="103" fill="black">
<rect fill="white" x="211" y="27" width="364" height="103"/>
<path d="M219.29 125L260.828 32.765H292.691L334.229 125H311.783L303.011 105.521H250.508L241.736 125H219.29ZM257.99 88.751H295.529L277.598 48.89H275.921L257.99 88.751ZM370.237 125C362.669 125 357.122 123.108 353.596 119.324C350.156 115.54 348.436 110.638 348.436 104.618V58.565H367.141V102.425C367.141 107.585 369.721 110.165 374.881 110.165H401.713C406.873 110.165 409.453 107.585 409.453 102.425V58.565H428.158V104.618C428.158 110.638 426.395 115.54 422.869 119.324C419.429 123.108 413.925 125 406.357 125H370.237ZM529.91 125H511.205V32.765H529.91V125ZM526.685 125H482.18C470.656 125 461.669 122.162 455.219 116.486C448.769 110.81 445.544 102.597 445.544 91.847C445.544 81.011 448.769 72.755 455.219 67.079C461.669 61.403 470.656 58.565 482.18 58.565H525.395V73.4H482.18C476.59 73.4 472.29 74.948 469.28 78.044C466.356 81.054 464.894 85.655 464.894 91.847C464.894 97.953 466.356 102.554 469.28 105.65C472.29 108.66 476.59 110.165 482.18 110.165H526.685V125ZM550.568 125V58.565H569.273V125H550.568ZM550.439 47.6V33.023H569.402V47.6H550.439Z"/>
</mask>
<path d="M219.29 125L260.828 32.765H292.691L334.229 125H311.783L303.011 105.521H250.508L241.736 125H219.29ZM257.99 88.751H295.529L277.598 48.89H275.921L257.99 88.751ZM370.237 125C362.669 125 357.122 123.108 353.596 119.324C350.156 115.54 348.436 110.638 348.436 104.618V58.565H367.141V102.425C367.141 107.585 369.721 110.165 374.881 110.165H401.713C406.873 110.165 409.453 107.585 409.453 102.425V58.565H428.158V104.618C428.158 110.638 426.395 115.54 422.869 119.324C419.429 123.108 413.925 125 406.357 125H370.237ZM529.91 125H511.205V32.765H529.91V125ZM526.685 125H482.18C470.656 125 461.669 122.162 455.219 116.486C448.769 110.81 445.544 102.597 445.544 91.847C445.544 81.011 448.769 72.755 455.219 67.079C461.669 61.403 470.656 58.565 482.18 58.565H525.395V73.4H482.18C476.59 73.4 472.29 74.948 469.28 78.044C466.356 81.054 464.894 85.655 464.894 91.847C464.894 97.953 466.356 102.554 469.28 105.65C472.29 108.66 476.59 110.165 482.18 110.165H526.685V125ZM550.568 125V58.565H569.273V125H550.568ZM550.439 47.6V33.023H569.402V47.6H550.439Z" fill="#020202"/>
<path d="M219.29 125L214.731 122.947L211.555 130H219.29V125ZM260.828 32.765V27.765H257.596L256.269 30.7118L260.828 32.765ZM292.691 32.765L297.25 30.7118L295.923 27.765H292.691V32.765ZM334.229 125V130H341.964L338.788 122.947L334.229 125ZM311.783 125L307.224 127.053L308.551 130H311.783V125ZM303.011 105.521L307.57 103.468L306.243 100.521H303.011V105.521ZM250.508 105.521V100.521H247.276L245.949 103.468L250.508 105.521ZM241.736 125V130H244.968L246.295 127.053L241.736 125ZM257.99 88.751L253.43 86.6998L250.258 93.751H257.99V88.751ZM295.529 88.751V93.751H303.261L300.089 86.6998L295.529 88.751ZM277.598 48.89L282.158 46.8388L280.831 43.89H277.598V48.89ZM275.921 48.89V43.89H272.688L271.361 46.8388L275.921 48.89ZM223.849 127.053L265.387 34.8181L256.269 30.7118L214.731 122.947L223.849 127.053ZM260.828 37.765H292.691V27.765H260.828V37.765ZM288.132 34.8181L329.67 127.053L338.788 122.947L297.25 30.7118L288.132 34.8181ZM334.229 120H311.783V130H334.229V120ZM316.342 122.947L307.57 103.468L298.452 107.574L307.224 127.053L316.342 122.947ZM303.011 100.521H250.508V110.521H303.011V100.521ZM245.949 103.468L237.177 122.947L246.295 127.053L255.067 107.574L245.949 103.468ZM241.736 120H219.29V130H241.736V120ZM257.99 93.751H295.529V83.751H257.99V93.751ZM300.089 86.6998L282.158 46.8388L273.038 50.9412L290.969 90.8022L300.089 86.6998ZM277.598 43.89H275.921V53.89H277.598V43.89ZM271.361 46.8388L253.43 86.6998L262.55 90.8022L280.481 50.9412L271.361 46.8388ZM353.596 119.324L349.896 122.687L349.917 122.71L349.938 122.733L353.596 119.324ZM348.436 58.565V53.565H343.436V58.565H348.436ZM367.141 58.565H372.141V53.565H367.141V58.565ZM409.453 58.565V53.565H404.453V58.565H409.453ZM428.158 58.565H433.158V53.565H428.158V58.565ZM422.869 119.324L419.211 115.915L419.19 115.938L419.169 115.961L422.869 119.324ZM370.237 120C363.408 120 359.468 118.291 357.254 115.915L349.938 122.733C354.776 127.925 361.93 130 370.237 130V120ZM357.296 115.961C354.838 113.257 353.436 109.628 353.436 104.618H343.436C343.436 111.648 345.475 117.823 349.896 122.687L357.296 115.961ZM353.436 104.618V58.565H343.436V104.618H353.436ZM348.436 63.565H367.141V53.565H348.436V63.565ZM362.141 58.565V102.425H372.141V58.565H362.141ZM362.141 102.425C362.141 105.776 362.982 109.207 365.541 111.766C368.099 114.324 371.53 115.165 374.881 115.165V105.165C373.072 105.165 372.633 104.716 372.612 104.694C372.59 104.673 372.141 104.234 372.141 102.425H362.141ZM374.881 115.165H401.713V105.165H374.881V115.165ZM401.713 115.165C405.064 115.165 408.495 114.324 411.054 111.766C413.612 109.207 414.453 105.776 414.453 102.425H404.453C404.453 104.234 404.004 104.673 403.983 104.694C403.961 104.716 403.522 105.165 401.713 105.165V115.165ZM414.453 102.425V58.565H404.453V102.425H414.453ZM409.453 63.565H428.158V53.565H409.453V63.565ZM423.158 58.565V104.618H433.158V58.565H423.158ZM423.158 104.618C423.158 109.595 421.735 113.207 419.211 115.915L426.527 122.733C431.056 117.873 433.158 111.681 433.158 104.618H423.158ZM419.169 115.961C417.055 118.287 413.198 120 406.357 120V130C414.652 130 421.803 127.929 426.569 122.687L419.169 115.961ZM406.357 120H370.237V130H406.357V120ZM529.91 125V130H534.91V125H529.91ZM511.205 125H506.205V130H511.205V125ZM511.205 32.765V27.765H506.205V32.765H511.205ZM529.91 32.765H534.91V27.765H529.91V32.765ZM526.685 125V130H531.685V125H526.685ZM455.219 116.486L458.522 112.732L455.219 116.486ZM455.219 67.079L458.522 70.8326L455.219 67.079ZM525.395 58.565H530.395V53.565H525.395V58.565ZM525.395 73.4V78.4H530.395V73.4H525.395ZM469.28 78.044L465.695 74.5586L465.694 74.5601L469.28 78.044ZM469.28 105.65L465.645 109.083L465.694 109.135L465.744 109.186L469.28 105.65ZM526.685 110.165H531.685V105.165H526.685V110.165ZM529.91 120H511.205V130H529.91V120ZM516.205 125V32.765H506.205V125H516.205ZM511.205 37.765H529.91V27.765H511.205V37.765ZM524.91 32.765V125H534.91V32.765H524.91ZM526.685 120H482.18V130H526.685V120ZM482.18 120C471.452 120 463.787 117.365 458.522 112.732L451.916 120.24C459.551 126.959 469.86 130 482.18 130V120ZM458.522 112.732C453.412 108.236 450.544 101.549 450.544 91.847H440.544C440.544 103.645 444.126 113.384 451.916 120.24L458.522 112.732ZM450.544 91.847C450.544 82.0443 453.421 75.3218 458.522 70.8326L451.916 63.3254C444.117 70.1882 440.544 79.9777 440.544 91.847H450.544ZM458.522 70.8326C463.787 66.1996 471.452 63.565 482.18 63.565V53.565C469.86 53.565 459.551 56.6064 451.916 63.3254L458.522 70.8326ZM482.18 63.565H525.395V53.565H482.18V63.565ZM520.395 58.565V73.4H530.395V58.565H520.395ZM525.395 68.4H482.18V78.4H525.395V68.4ZM482.18 68.4C475.656 68.4 469.902 70.2313 465.695 74.5586L472.865 81.5294C474.678 79.6647 477.523 78.4 482.18 78.4V68.4ZM465.694 74.5601C461.511 78.8658 459.894 84.9667 459.894 91.847H469.894C469.894 86.3433 471.201 83.2422 472.866 81.5279L465.694 74.5601ZM459.894 91.847C459.894 98.6774 461.527 104.723 465.645 109.083L472.915 102.217C471.185 100.385 469.894 97.2286 469.894 91.847H459.894ZM465.744 109.186C469.958 113.4 475.695 115.165 482.18 115.165V105.165C477.485 105.165 474.621 103.92 472.815 102.114L465.744 109.186ZM482.18 115.165H526.685V105.165H482.18V115.165ZM521.685 110.165V125H531.685V110.165H521.685ZM550.568 125H545.568V130H550.568V125ZM550.568 58.565V53.565H545.568V58.565H550.568ZM569.273 58.565H574.273V53.565H569.273V58.565ZM569.273 125V130H574.273V125H569.273ZM550.439 47.6H545.439V52.6H550.439V47.6ZM550.439 33.023V28.023H545.439V33.023H550.439ZM569.402 33.023H574.402V28.023H569.402V33.023ZM569.402 47.6V52.6H574.402V47.6H569.402ZM555.568 125V58.565H545.568V125H555.568ZM550.568 63.565H569.273V53.565H550.568V63.565ZM564.273 58.565V125H574.273V58.565H564.273ZM569.273 120H550.568V130H569.273V120ZM555.439 47.6V33.023H545.439V47.6H555.439ZM550.439 38.023H569.402V28.023H550.439V38.023ZM564.402 33.023V47.6H574.402V33.023H564.402ZM569.402 42.6H550.439V52.6H569.402V42.6Z" fill="#00FFCC" mask="url(#path-2-outside-1_20_386)"/>
<mask id="path-4-outside-2_20_386" maskUnits="userSpaceOnUse" x="5" y="26" width="208" height="114" fill="black">
<rect fill="white" x="5" y="26" width="208" height="114"/>
<path d="M10.15 135V31.325H33.35V135H10.15ZM55.7967 135V60.325H120.902C129.408 60.325 135.595 62.4517 139.462 66.705C143.425 70.8617 145.407 76.3717 145.407 83.235V135H124.382V85.7C124.382 79.9 121.482 77 115.682 77H76.8217V135H55.7967ZM162.757 101.07V84.395H207.127V101.07H162.757Z"/>
</mask>
<path d="M10.15 135V31.325H33.35V135H10.15ZM55.7967 135V60.325H120.902C129.408 60.325 135.595 62.4517 139.462 66.705C143.425 70.8617 145.407 76.3717 145.407 83.235V135H124.382V85.7C124.382 79.9 121.482 77 115.682 77H76.8217V135H55.7967ZM162.757 101.07V84.395H207.127V101.07H162.757Z" fill="#020202"/>
<path d="M10.15 135H5.15V140H10.15V135ZM10.15 31.325V26.325H5.15V31.325H10.15ZM33.35 31.325H38.35V26.325H33.35V31.325ZM33.35 135V140H38.35V135H33.35ZM15.15 135V31.325H5.15V135H15.15ZM10.15 36.325H33.35V26.325H10.15V36.325ZM28.35 31.325V135H38.35V31.325H28.35ZM33.35 130H10.15V140H33.35V130ZM55.7967 135H50.7967V140H55.7967V135ZM55.7967 60.325V55.325H50.7967V60.325H55.7967ZM139.462 66.705L135.762 70.0684L135.802 70.1124L135.843 70.1554L139.462 66.705ZM145.407 135V140H150.407V135H145.407ZM124.382 135H119.382V140H124.382V135ZM76.8217 77V72H71.8217V77H76.8217ZM76.8217 135V140H81.8217V135H76.8217ZM60.7967 135V60.325H50.7967V135H60.7967ZM55.7967 65.325H120.902V55.325H55.7967V65.325ZM120.902 65.325C128.681 65.325 133.221 67.273 135.762 70.0684L143.161 63.3416C137.969 57.6303 130.135 55.325 120.902 55.325V65.325ZM135.843 70.1554C138.751 73.2056 140.407 77.39 140.407 83.235H150.407C150.407 75.3534 148.099 68.5177 143.08 63.2546L135.843 70.1554ZM140.407 83.235V135H150.407V83.235H140.407ZM145.407 130H124.382V140H145.407V130ZM129.382 135V85.7H119.382V135H129.382ZM129.382 85.7C129.382 82.0293 128.461 78.3579 125.742 75.6395C123.024 72.9211 119.352 72 115.682 72V82C117.811 82 118.49 82.5289 118.671 82.7105C118.853 82.8921 119.382 83.5707 119.382 85.7H129.382ZM115.682 72H76.8217V82H115.682V72ZM71.8217 77V135H81.8217V77H71.8217ZM76.8217 130H55.7967V140H76.8217V130ZM162.757 101.07H157.757V106.07H162.757V101.07ZM162.757 84.395V79.395H157.757V84.395H162.757ZM207.127 84.395H212.127V79.395H207.127V84.395ZM207.127 101.07V106.07H212.127V101.07H207.127ZM167.757 101.07V84.395H157.757V101.07H167.757ZM162.757 89.395H207.127V79.395H162.757V89.395ZM202.127 84.395V101.07H212.127V84.395H202.127ZM207.127 96.07H162.757V106.07H207.127V96.07Z" fill="#00FFCC" mask="url(#path-4-outside-2_20_386)"/>
<path d="M620.031 58.3192C624.363 55.1689 630.336 55.234 634.594 58.4778" stroke="#00FFCC" stroke-width="2"/>
<path d="M666.436 57.3192C670.767 54.1689 676.741 54.234 680.998 57.4778" stroke="#00FFCC" stroke-width="2"/>
<rect x="619.5" y="27.5" width="60.8725" height="6" rx="3" fill="#00FFCC" stroke="#020202"/>
<rect x="624.818" y="64.9428" width="7.30889" height="17.1342" rx="3" fill="#020202" stroke="#00FFCC" stroke-width="2"/>
<path d="M669.509 67.6211C669.509 65.9643 670.852 64.6211 672.509 64.6211H673.818C675.475 64.6211 676.818 65.9643 676.818 67.6211V78.7553C676.818 80.4122 675.475 81.7553 673.818 81.7553H672.509C670.852 81.7553 669.509 80.4122 669.509 78.7553V67.6211Z" fill="#020202" stroke="#00FFCC" stroke-width="2"/>
<path d="M594.739 67.0988L595.25 59.8013L595.905 55.0427L596.935 49.5516L597.255 48.5519C597.728 47.0777 598.328 45.6472 599.047 44.2762L599.155 44.0703C599.727 42.9809 600.382 41.9374 601.114 40.949V40.949C602.041 39.6981 603.088 38.5408 604.241 37.4939L605.566 36.2902C606.626 35.3272 607.783 34.4779 609.02 33.756V33.756C610.355 32.9769 611.774 32.3512 613.249 31.8906L614.5 31.5V31.5C616.487 30.8377 618.568 30.5 620.662 30.5L621 30.5" stroke="#00FFCC" stroke-width="3"/>
<rect x="606.591" y="41.4999" width="86.8182" height="85" rx="21.5" stroke="#00FFCC" stroke-width="7"/>
<path d="M590.5 67.1999C590.5 61.0162 595.381 55.9724 601.5 55.7106V109.089C595.381 108.827 590.5 103.784 590.5 97.5999V67.1999Z" fill="#00FFCC" stroke="#020202"/>
<path d="M705.261 67.2481L704.75 59.9506L704.095 55.192L703.065 49.7009L702.745 48.7012C702.272 47.227 701.672 45.7964 700.953 44.4255L700.845 44.2196C700.273 43.1302 699.618 42.0867 698.886 41.0983V41.0983C697.959 39.8473 696.912 38.6901 695.759 37.6431L694.434 36.4395C693.374 35.4765 692.217 34.6272 690.98 33.9053V33.9053C689.645 33.1262 688.226 32.5005 686.751 32.0399L685.5 31.6493V31.6493C683.513 30.987 681.432 30.6493 679.338 30.6493L679 30.6493" stroke="#00FFCC" stroke-width="3"/>
<path d="M709.5 67.3492C709.5 61.1655 704.619 56.1217 698.5 55.8599V109.239C704.619 108.977 709.5 103.933 709.5 97.7492V67.3492Z" fill="#00FFCC" stroke="#020202"/>
<path d="M628.182 95.9999L628.451 96.7582C628.785 97.7015 629.201 98.6137 629.695 99.4843L629.741 99.5654C630.243 100.45 630.827 101.286 631.486 102.061V102.061C632.364 103.094 633.369 104.011 634.477 104.793L634.649 104.914C635.986 105.858 637.447 106.612 638.991 107.156L640.532 107.7C642.064 108.24 643.638 108.654 645.238 108.936L646.874 109.224C648.291 109.474 649.726 109.6 651.165 109.6V109.6C652.804 109.6 654.44 109.437 656.046 109.113L656.5 109.022C658.182 108.683 659.829 108.189 661.42 107.548L662.332 107.18C663.723 106.619 665.046 105.899 666.272 105.034L666.614 104.793C667.722 104.011 668.726 103.094 669.605 102.061V102.061C670.264 101.286 670.848 100.45 671.35 99.5654L671.396 99.4843C671.89 98.6137 672.306 97.7016 672.64 96.7582L672.909 95.9999" stroke="#00FFCC" stroke-width="4"/>
</svg>
